<svg width="220" height="32" viewBox="0 0 220 32" fill="none" xmlns="http://www.w3.org/2000/svg">
<g clip-path="url(#clip0_21_1195)">
<path d="M2.5321 30.8572L10.2378 30.8667L18.986 8.16034L11.2802 8.14893L2.5321 30.8572Z" fill="#0732A2"/>
<path d="M17.7122 0.715088L7.79993 8.28387H22.9356L17.7122 0.715088Z" fill="#0732A2"/>
<path d="M19.6633 9.41382L16.4904 17.6636L18.5124 22.4818H14.6681L12.8553 27.1193H20.1236L21.7518 31.0473H29.2293L19.6633 9.41382Z" fill="#019E66"/>
</g>
<path d="M37.7621 26.8811L45.6547 6.93596H49.7862L57.6217 26.8811H52.7209L48.9314 16.7661C48.7984 16.3672 48.6464 15.9398 48.4755 15.4839C48.3235 15.028 48.1715 14.5531 48.0196 14.0592C47.8676 13.5653 47.7252 13.0905 47.5922 12.6346C47.4592 12.1787 47.3452 11.7513 47.2503 11.3524L48.0766 11.3239C47.9626 11.7988 47.8391 12.2642 47.7062 12.7201C47.5732 13.1759 47.4307 13.6318 47.2788 14.0877C47.1268 14.5436 46.9653 14.9995 46.7944 15.4554C46.6424 15.8923 46.481 16.3482 46.31 16.8231L42.5489 26.8811H37.7621ZM41.5232 23.063L43.0618 19.3589H52.1796L53.7182 23.063H41.5232ZM58.7975 26.8811V11.7513H63.157L63.3279 14.8285L62.3877 15.1705C62.5966 14.4866 62.967 13.8693 63.4989 13.3184C64.0497 12.7485 64.7051 12.2927 65.4649 11.9507C66.2247 11.6088 67.0225 11.4379 67.8583 11.4379C68.998 11.4379 69.9573 11.6753 70.7361 12.1502C71.5149 12.6061 72.0943 13.2994 72.4742 14.2302C72.8731 15.142 73.0725 16.2722 73.0725 17.6209V26.8811H68.4852V17.9628C68.4852 17.3549 68.3997 16.8515 68.2287 16.4526C68.0578 16.0537 67.8013 15.7593 67.4594 15.5694C67.1175 15.3794 66.6901 15.2939 66.1772 15.3129C65.7783 15.3129 65.4079 15.3794 65.066 15.5124C64.7241 15.6263 64.4202 15.8068 64.1542 16.0537C63.9073 16.2817 63.7173 16.5476 63.5844 16.8515C63.4514 17.1555 63.3849 17.4974 63.3849 17.8773V26.8811H61.077C60.5831 26.8811 60.1367 26.8811 59.7378 26.8811C59.3579 26.8811 59.0445 26.8811 58.7975 26.8811ZM82.6959 27.166C81.2332 27.166 79.913 26.8241 78.7353 26.1403C77.5766 25.4565 76.6648 24.5257 76 23.348C75.3351 22.1513 75.0027 20.8121 75.0027 19.3304C75.0027 17.8108 75.3351 16.4621 76 15.2844C76.6648 14.0877 77.5766 13.1475 78.7353 12.4636C79.913 11.7798 81.2332 11.4379 82.6959 11.4379C84.0445 11.4379 85.2792 11.6848 86.4 12.1787C87.5397 12.6536 88.4325 13.3089 89.0783 14.1447L86.5994 17.165C86.3525 16.8421 86.0485 16.5476 85.6876 16.2817C85.3267 16.0158 84.9278 15.8068 84.4909 15.6548C84.054 15.5029 83.5981 15.4269 83.1233 15.4269C82.4014 15.4269 81.7651 15.5979 81.2142 15.9398C80.6633 16.2627 80.236 16.7186 79.932 17.3074C79.6281 17.8963 79.4761 18.5611 79.4761 19.302C79.4761 20.0238 79.6281 20.6791 79.932 21.268C80.2549 21.8378 80.6918 22.2937 81.2427 22.6356C81.7936 22.9776 82.4109 23.1485 83.0948 23.1485C83.5886 23.1485 84.0445 23.082 84.4624 22.9491C84.8803 22.8161 85.2602 22.6261 85.6021 22.3792C85.9631 22.1323 86.2955 21.8378 86.5994 21.4959L89.0783 24.5162C88.4325 25.314 87.5302 25.9598 86.3715 26.4537C85.2127 26.9286 83.9875 27.166 82.6959 27.166ZM90.7287 26.8811V5.79624H95.2591V14.8285L94.3188 15.1705C94.5277 14.4866 94.8982 13.8693 95.43 13.3184C95.9809 12.7485 96.6362 12.2927 97.396 11.9507C98.1559 11.6088 98.9537 11.4379 99.7895 11.4379C100.929 11.4379 101.888 11.6753 102.667 12.1502C103.446 12.6061 104.025 13.2994 104.405 14.2302C104.804 15.142 105.004 16.2722 105.004 17.6209V26.8811H100.416V17.9628C100.416 17.3549 100.331 16.8515 100.16 16.4526C99.9889 16.0537 99.7325 15.7593 99.3906 15.5694C99.0486 15.3794 98.6212 15.2939 98.1084 15.3129C97.7095 15.3129 97.3391 15.3794 96.9971 15.5124C96.6552 15.6263 96.3513 15.8068 96.0854 16.0537C95.8384 16.2817 95.6485 16.5476 95.5155 16.8515C95.3825 17.1555 95.3161 17.4974 95.3161 17.8773V26.8811H93.0081C92.5142 26.8811 92.0678 26.8811 91.6689 26.8811C91.289 26.8811 90.9756 26.8811 90.7287 26.8811ZM115.083 27.166C113.525 27.166 112.129 26.8336 110.894 26.1688C109.66 25.4849 108.691 24.5542 107.988 23.3765C107.285 22.1797 106.934 20.8311 106.934 19.3304C106.934 17.7918 107.285 16.4337 107.988 15.2559C108.691 14.0592 109.66 13.1285 110.894 12.4636C112.129 11.7798 113.525 11.4379 115.083 11.4379C116.66 11.4379 118.056 11.7798 119.271 12.4636C120.506 13.1285 121.475 14.0592 122.178 15.2559C122.88 16.4337 123.232 17.7918 123.232 19.3304C123.232 20.8311 122.88 22.1797 122.178 23.3765C121.475 24.5542 120.506 25.4849 119.271 26.1688C118.056 26.8336 116.66 27.166 115.083 27.166ZM115.083 23.234C115.767 23.234 116.365 23.063 116.878 22.7211C117.41 22.3792 117.828 21.9138 118.132 21.325C118.436 20.7361 118.578 20.0713 118.559 19.3304C118.578 18.5516 118.436 17.8678 118.132 17.2789C117.828 16.6711 117.41 16.2057 116.878 15.8828C116.365 15.5409 115.767 15.3699 115.083 15.3699C114.418 15.3699 113.82 15.5409 113.288 15.8828C112.756 16.2247 112.338 16.6901 112.034 17.2789C111.73 17.8678 111.578 18.5516 111.578 19.3304C111.578 20.0713 111.73 20.7361 112.034 21.325C112.338 21.9138 112.756 22.3792 113.288 22.7211C113.82 23.063 114.418 23.234 115.083 23.234ZM125.359 26.8811V11.7513H129.718L129.918 16.6806L129.063 15.7118C129.31 14.914 129.69 14.1922 130.203 13.5464C130.716 12.9005 131.323 12.3876 132.026 12.0077C132.748 11.6278 133.498 11.4379 134.277 11.4379C134.619 11.4379 134.933 11.4664 135.217 11.5233C135.521 11.5613 135.787 11.6278 136.015 11.7228L134.79 16.7661C134.581 16.6521 134.296 16.5571 133.935 16.4811C133.593 16.3862 133.232 16.3387 132.853 16.3387C132.435 16.3387 132.045 16.4147 131.684 16.5666C131.342 16.6996 131.038 16.899 130.773 17.165C130.526 17.4309 130.326 17.7443 130.174 18.1052C130.041 18.4662 129.975 18.8746 129.975 19.3304V26.8811H125.359ZM137.954 26.8811V6.93596H146.787C148.174 6.93596 149.333 7.13542 150.263 7.53432C151.213 7.91423 151.935 8.47459 152.429 9.21541C152.923 9.93723 153.17 10.8205 153.17 11.8653C153.17 12.986 152.885 13.9263 152.315 14.6861C151.764 15.4459 150.966 15.9778 149.921 16.2817L149.893 15.6833C150.748 15.8923 151.498 16.2437 152.144 16.7376C152.809 17.2125 153.322 17.8013 153.683 18.5041C154.043 19.188 154.224 19.9668 154.224 20.8406C154.224 21.8473 154.043 22.7306 153.683 23.4904C153.341 24.2502 152.847 24.8866 152.201 25.3995C151.574 25.8933 150.824 26.2638 149.95 26.5107C149.095 26.7576 148.145 26.8811 147.101 26.8811H137.954ZM142.57 22.8066H146.901C147.699 22.8066 148.316 22.6166 148.753 22.2367C149.209 21.8568 149.437 21.3155 149.437 20.6126C149.437 20.1757 149.323 19.8053 149.095 19.5014C148.886 19.1975 148.582 18.9695 148.183 18.8176C147.784 18.6656 147.31 18.5896 146.759 18.5896H142.57V22.8066ZM142.57 14.914H146.132C146.626 14.914 147.044 14.838 147.386 14.6861C147.727 14.5151 147.984 14.2872 148.155 14.0022C148.345 13.6983 148.44 13.3469 148.44 12.948C148.44 12.3401 148.231 11.8653 147.813 11.5233C147.395 11.1814 146.768 11.0105 145.932 11.0105H142.57V14.914ZM163.689 27.166C162.132 27.166 160.735 26.8336 159.501 26.1688C158.266 25.4849 157.297 24.5542 156.594 23.3765C155.892 22.1797 155.54 20.8311 155.54 19.3304C155.54 17.7918 155.892 16.4337 156.594 15.2559C157.297 14.0592 158.266 13.1285 159.501 12.4636C160.735 11.7798 162.132 11.4379 163.689 11.4379C165.266 11.4379 166.662 11.7798 167.878 12.4636C169.112 13.1285 170.081 14.0592 170.784 15.2559C171.487 16.4337 171.838 17.7918 171.838 19.3304C171.838 20.8311 171.487 22.1797 170.784 23.3765C170.081 24.5542 169.112 25.4849 167.878 26.1688C166.662 26.8336 165.266 27.166 163.689 27.166ZM163.689 23.234C164.373 23.234 164.971 23.063 165.484 22.7211C166.016 22.3792 166.434 21.9138 166.738 21.325C167.042 20.7361 167.184 20.0713 167.165 19.3304C167.184 18.5516 167.042 17.8678 166.738 17.2789C166.434 16.6711 166.016 16.2057 165.484 15.8828C164.971 15.5409 164.373 15.3699 163.689 15.3699C163.024 15.3699 162.426 15.5409 161.894 15.8828C161.362 16.2247 160.944 16.6901 160.64 17.2789C160.336 17.8678 160.184 18.5516 160.184 19.3304C160.184 20.0713 160.336 20.7361 160.64 21.325C160.944 21.9138 161.362 22.3792 161.894 22.7211C162.426 23.063 163.024 23.234 163.689 23.234ZM181.06 27.166C179.502 27.166 178.106 26.8336 176.871 26.1688C175.637 25.4849 174.668 24.5542 173.965 23.3765C173.262 22.1797 172.911 20.8311 172.911 19.3304C172.911 17.7918 173.262 16.4337 173.965 15.2559C174.668 14.0592 175.637 13.1285 176.871 12.4636C178.106 11.7798 179.502 11.4379 181.06 11.4379C182.637 11.4379 184.033 11.7798 185.248 12.4636C186.483 13.1285 187.452 14.0592 188.155 15.2559C188.857 16.4337 189.209 17.7918 189.209 19.3304C189.209 20.8311 188.857 22.1797 188.155 23.3765C187.452 24.5542 186.483 25.4849 185.248 26.1688C184.033 26.8336 182.637 27.166 181.06 27.166ZM181.06 23.234C181.744 23.234 182.342 23.063 182.855 22.7211C183.387 22.3792 183.805 21.9138 184.109 21.325C184.413 20.7361 184.555 20.0713 184.536 19.3304C184.555 18.5516 184.413 17.8678 184.109 17.2789C183.805 16.6711 183.387 16.2057 182.855 15.8828C182.342 15.5409 181.744 15.3699 181.06 15.3699C180.395 15.3699 179.797 15.5409 179.265 15.8828C178.733 16.2247 178.315 16.6901 178.011 17.2789C177.707 17.8678 177.555 18.5516 177.555 19.3304C177.555 20.0713 177.707 20.7361 178.011 21.325C178.315 21.9138 178.733 22.3792 179.265 22.7211C179.797 23.063 180.395 23.234 181.06 23.234ZM195.724 22.4362L194.1 18.96L201.137 11.7513H207.15L195.724 22.4362ZM191.336 26.8811V5.79624H195.923V26.8811H191.336ZM201.565 26.8811L196.294 20.0428L199.542 17.5354L207.007 26.8811H201.565ZM213.306 27.166C211.862 27.166 210.571 26.9381 209.431 26.4822C208.291 26.0073 207.379 25.3615 206.696 24.5447L209.488 22.1513C210.077 22.7401 210.742 23.177 211.482 23.4619C212.223 23.7279 212.926 23.8608 213.591 23.8608C213.838 23.8608 214.056 23.8323 214.246 23.7754C214.436 23.7184 214.598 23.6424 214.731 23.5474C214.883 23.4334 214.997 23.31 215.073 23.177C215.149 23.025 215.187 22.8541 215.187 22.6641C215.187 22.2842 215.025 21.9993 214.702 21.8093C214.55 21.7144 214.275 21.6004 213.876 21.4674C213.477 21.3155 212.964 21.1635 212.337 21.0115C211.444 20.7836 210.666 20.5082 210.001 20.1852C209.355 19.8623 208.823 19.4919 208.405 19.074C208.025 18.6941 207.731 18.2572 207.522 17.7633C207.332 17.2694 207.237 16.7186 207.237 16.1107C207.237 15.18 207.512 14.3632 208.063 13.6603C208.633 12.9575 209.374 12.4161 210.286 12.0362C211.198 11.6373 212.185 11.4379 213.249 11.4379C214.085 11.4379 214.873 11.5328 215.614 11.7228C216.374 11.9128 217.077 12.1787 217.722 12.5206C218.387 12.8625 218.976 13.2709 219.489 13.7458L217.067 16.4526C216.744 16.1297 216.364 15.8448 215.927 15.5979C215.49 15.3319 215.054 15.123 214.617 14.971C214.18 14.8 213.771 14.7146 213.391 14.7146C213.107 14.7146 212.85 14.7431 212.622 14.8C212.413 14.838 212.233 14.914 212.081 15.028C211.948 15.123 211.843 15.2464 211.767 15.3984C211.691 15.5314 211.653 15.6833 211.653 15.8543C211.653 16.0632 211.701 16.2532 211.796 16.4242C211.91 16.5761 212.062 16.7186 212.252 16.8515C212.423 16.9465 212.717 17.07 213.135 17.222C213.572 17.3739 214.142 17.5449 214.845 17.7348C215.737 17.9818 216.497 18.2667 217.124 18.5896C217.77 18.8936 218.283 19.2545 218.663 19.6724C218.986 19.9953 219.214 20.3752 219.347 20.8121C219.498 21.23 219.574 21.6859 219.574 22.1797C219.574 23.1485 219.299 24.0128 218.748 24.7726C218.216 25.5134 217.475 26.1023 216.526 26.5392C215.595 26.9571 214.522 27.166 213.306 27.166Z" fill="#13294B"/>
<defs>
<clipPath id="clip0_21_1195">
<rect width="26.6971" height="30.3322" fill="white" transform="translate(2.53247 0.714966)"/>
</clipPath>
</defs>
</svg>
