<svg width="1400" height="350" viewBox="0 0 1400 350" fill="none" xmlns="http://www.w3.org/2000/svg">
<rect width="1400" height="350" fill="#0D0D0D"/>
<path d="M59.224 85.384C59.832 85.48 60.384 85.728 60.88 86.128C61.392 86.528 61.792 87.024 62.08 87.616C62.384 88.208 62.536 88.84 62.536 89.512C62.536 90.36 62.32 91.128 61.888 91.816C61.456 92.488 60.824 93.024 59.992 93.424C59.176 93.808 58.208 94 57.088 94H50.848V77.272H56.848C57.984 77.272 58.952 77.464 59.752 77.848C60.552 78.216 61.152 78.72 61.552 79.36C61.952 80 62.152 80.72 62.152 81.52C62.152 82.512 61.88 83.336 61.336 83.992C60.808 84.632 60.104 85.096 59.224 85.384ZM53.032 84.496H56.704C57.728 84.496 58.52 84.256 59.08 83.776C59.64 83.296 59.92 82.632 59.92 81.784C59.92 80.936 59.64 80.272 59.08 79.792C58.52 79.312 57.712 79.072 56.656 79.072H53.032V84.496ZM56.896 92.2C57.984 92.2 58.832 91.944 59.44 91.432C60.048 90.92 60.352 90.208 60.352 89.296C60.352 88.368 60.032 87.64 59.392 87.112C58.752 86.568 57.896 86.296 56.824 86.296H53.032V92.2H56.896ZM76.5108 80.848V94H74.3268V92.056C73.9108 92.728 73.3268 93.256 72.5748 93.64C71.8388 94.008 71.0228 94.192 70.1268 94.192C69.1028 94.192 68.1827 93.984 67.3668 93.568C66.5508 93.136 65.9027 92.496 65.4227 91.648C64.9587 90.8 64.7267 89.768 64.7267 88.552V80.848H66.8867V88.264C66.8867 89.56 67.2147 90.56 67.8707 91.264C68.5268 91.952 69.4228 92.296 70.5588 92.296C71.7268 92.296 72.6467 91.936 73.3187 91.216C73.9908 90.496 74.3268 89.448 74.3268 88.072V80.848H76.5108ZM80.6063 78.712C80.1903 78.712 79.8383 78.568 79.5503 78.28C79.2623 77.992 79.1183 77.64 79.1183 77.224C79.1183 76.808 79.2623 76.456 79.5503 76.168C79.8383 75.88 80.1903 75.736 80.6063 75.736C81.0063 75.736 81.3423 75.88 81.6143 76.168C81.9023 76.456 82.0463 76.808 82.0463 77.224C82.0463 77.64 81.9023 77.992 81.6143 78.28C81.3423 78.568 81.0063 78.712 80.6063 78.712ZM81.6623 80.848V94H79.4783V80.848H81.6623ZM86.8486 76.24V94H84.6646V76.24H86.8486ZM89.0348 87.376C89.0348 86.032 89.3068 84.856 89.8508 83.848C90.3948 82.824 91.1388 82.032 92.0828 81.472C93.0428 80.912 94.1148 80.632 95.2988 80.632C96.3228 80.632 97.2748 80.872 98.1548 81.352C99.0348 81.816 99.7068 82.432 100.171 83.2V76.24H102.379V94H100.171V91.528C99.7388 92.312 99.0988 92.96 98.2508 93.472C97.4028 93.968 96.4108 94.216 95.2748 94.216C94.1068 94.216 93.0428 93.928 92.0828 93.352C91.1388 92.776 90.3948 91.968 89.8508 90.928C89.3068 89.888 89.0348 88.704 89.0348 87.376ZM100.171 87.4C100.171 86.408 99.9708 85.544 99.5708 84.808C99.1708 84.072 98.6268 83.512 97.9388 83.128C97.2668 82.728 96.5228 82.528 95.7068 82.528C94.8908 82.528 94.1468 82.72 93.4748 83.104C92.8028 83.488 92.2668 84.048 91.8668 84.784C91.4668 85.52 91.2668 86.384 91.2668 87.376C91.2668 88.384 91.4668 89.264 91.8668 90.016C92.2668 90.752 92.8028 91.32 93.4748 91.72C94.1468 92.104 94.8908 92.296 95.7068 92.296C96.5228 92.296 97.2668 92.104 97.9388 91.72C98.6268 91.32 99.1708 90.752 99.5708 90.016C99.9708 89.264 100.171 88.392 100.171 87.4ZM106.478 78.712C106.062 78.712 105.71 78.568 105.422 78.28C105.134 77.992 104.99 77.64 104.99 77.224C104.99 76.808 105.134 76.456 105.422 76.168C105.71 75.88 106.062 75.736 106.478 75.736C106.878 75.736 107.214 75.88 107.486 76.168C107.774 76.456 107.918 76.808 107.918 77.224C107.918 77.64 107.774 77.992 107.486 78.28C107.214 78.568 106.878 78.712 106.478 78.712ZM107.534 80.848V94H105.35V80.848H107.534ZM116.944 80.608C118.544 80.608 119.84 81.096 120.832 82.072C121.824 83.032 122.32 84.424 122.32 86.248V94H120.16V86.56C120.16 85.248 119.832 84.248 119.176 83.56C118.52 82.856 117.624 82.504 116.488 82.504C115.336 82.504 114.416 82.864 113.728 83.584C113.056 84.304 112.72 85.352 112.72 86.728V94H110.536V80.848H112.72V82.72C113.152 82.048 113.736 81.528 114.472 81.16C115.224 80.792 116.048 80.608 116.944 80.608ZM130.591 80.632C131.727 80.632 132.719 80.88 133.567 81.376C134.431 81.872 135.071 82.496 135.487 83.248V80.848H137.695V94.288C137.695 95.488 137.439 96.552 136.927 97.48C136.415 98.424 135.679 99.16 134.719 99.688C133.775 100.216 132.671 100.48 131.407 100.48C129.679 100.48 128.239 100.072 127.087 99.256C125.935 98.44 125.255 97.328 125.047 95.92H127.207C127.447 96.72 127.943 97.36 128.695 97.84C129.447 98.336 130.351 98.584 131.407 98.584C132.607 98.584 133.583 98.208 134.335 97.456C135.103 96.704 135.487 95.648 135.487 94.288V91.528C135.055 92.296 134.415 92.936 133.567 93.448C132.719 93.96 131.727 94.216 130.591 94.216C129.423 94.216 128.359 93.928 127.399 93.352C126.455 92.776 125.711 91.968 125.167 90.928C124.623 89.888 124.351 88.704 124.351 87.376C124.351 86.032 124.623 84.856 125.167 83.848C125.711 82.824 126.455 82.032 127.399 81.472C128.359 80.912 129.423 80.632 130.591 80.632ZM135.487 87.4C135.487 86.408 135.287 85.544 134.887 84.808C134.487 84.072 133.943 83.512 133.255 83.128C132.583 82.728 131.839 82.528 131.023 82.528C130.207 82.528 129.463 82.72 128.791 83.104C128.119 83.488 127.583 84.048 127.183 84.784C126.783 85.52 126.583 86.384 126.583 87.376C126.583 88.384 126.783 89.264 127.183 90.016C127.583 90.752 128.119 91.32 128.791 91.72C129.463 92.104 130.207 92.296 131.023 92.296C131.839 92.296 132.583 92.104 133.255 91.72C133.943 91.32 134.487 90.752 134.887 90.016C135.287 89.264 135.487 88.392 135.487 87.4ZM151.001 94.216C149.993 94.216 149.089 94.048 148.289 93.712C147.489 93.36 146.857 92.88 146.393 92.272C145.929 91.648 145.673 90.936 145.625 90.136H147.881C147.945 90.792 148.249 91.328 148.793 91.744C149.353 92.16 150.081 92.368 150.977 92.368C151.809 92.368 152.465 92.184 152.945 91.816C153.425 91.448 153.665 90.984 153.665 90.424C153.665 89.848 153.409 89.424 152.897 89.152C152.385 88.864 151.593 88.584 150.521 88.312C149.545 88.056 148.745 87.8 148.121 87.544C147.513 87.272 146.985 86.88 146.537 86.368C146.105 85.84 145.889 85.152 145.889 84.304C145.889 83.632 146.089 83.016 146.489 82.456C146.889 81.896 147.457 81.456 148.193 81.136C148.929 80.8 149.769 80.632 150.713 80.632C152.169 80.632 153.345 81 154.241 81.736C155.137 82.472 155.617 83.48 155.681 84.76H153.497C153.449 84.072 153.169 83.52 152.657 83.104C152.161 82.688 151.489 82.48 150.641 82.48C149.857 82.48 149.233 82.648 148.769 82.984C148.305 83.32 148.073 83.76 148.073 84.304C148.073 84.736 148.209 85.096 148.481 85.384C148.769 85.656 149.121 85.88 149.537 86.056C149.969 86.216 150.561 86.4 151.313 86.608C152.257 86.864 153.025 87.12 153.617 87.376C154.209 87.616 154.713 87.984 155.129 88.48C155.561 88.976 155.785 89.624 155.801 90.424C155.801 91.144 155.601 91.792 155.201 92.368C154.801 92.944 154.233 93.4 153.497 93.736C152.777 94.056 151.945 94.216 151.001 94.216ZM160.348 76.24V94H158.164V76.24H160.348ZM175.35 86.92C175.35 87.336 175.326 87.776 175.278 88.24H164.766C164.846 89.536 165.286 90.552 166.086 91.288C166.902 92.008 167.886 92.368 169.038 92.368C169.982 92.368 170.766 92.152 171.39 91.72C172.03 91.272 172.478 90.68 172.734 89.944H175.086C174.734 91.208 174.03 92.24 172.974 93.04C171.918 93.824 170.606 94.216 169.038 94.216C167.79 94.216 166.67 93.936 165.678 93.376C164.702 92.816 163.934 92.024 163.374 91C162.814 89.96 162.534 88.76 162.534 87.4C162.534 86.04 162.806 84.848 163.35 83.824C163.894 82.8 164.654 82.016 165.63 81.472C166.622 80.912 167.758 80.632 169.038 80.632C170.286 80.632 171.39 80.904 172.35 81.448C173.31 81.992 174.046 82.744 174.558 83.704C175.086 84.648 175.35 85.72 175.35 86.92ZM173.094 86.464C173.094 85.632 172.91 84.92 172.542 84.328C172.174 83.72 171.67 83.264 171.03 82.96C170.406 82.64 169.71 82.48 168.942 82.48C167.838 82.48 166.894 82.832 166.11 83.536C165.342 84.24 164.902 85.216 164.79 86.464H173.094ZM189.513 86.92C189.513 87.336 189.489 87.776 189.441 88.24H178.929C179.009 89.536 179.449 90.552 180.249 91.288C181.065 92.008 182.049 92.368 183.201 92.368C184.145 92.368 184.929 92.152 185.553 91.72C186.193 91.272 186.641 90.68 186.897 89.944H189.249C188.897 91.208 188.193 92.24 187.137 93.04C186.081 93.824 184.769 94.216 183.201 94.216C181.953 94.216 180.833 93.936 179.841 93.376C178.865 92.816 178.097 92.024 177.537 91C176.977 89.96 176.697 88.76 176.697 87.4C176.697 86.04 176.969 84.848 177.513 83.824C178.057 82.8 178.817 82.016 179.793 81.472C180.785 80.912 181.921 80.632 183.201 80.632C184.449 80.632 185.553 80.904 186.513 81.448C187.473 81.992 188.209 82.744 188.721 83.704C189.249 84.648 189.513 85.72 189.513 86.92ZM187.257 86.464C187.257 85.632 187.073 84.92 186.705 84.328C186.337 83.72 185.833 83.264 185.193 82.96C184.569 82.64 183.873 82.48 183.105 82.48C182.001 82.48 181.057 82.832 180.273 83.536C179.505 84.24 179.065 85.216 178.953 86.464H187.257ZM199.019 94L193.859 88.192V94H191.675V76.24H193.859V86.68L198.923 80.848H201.972L195.779 87.4L201.996 94H199.019ZM205.563 90.976L202.875 97.432H201.411L203.163 90.976H205.563ZM225.023 86.92C225.023 87.336 224.999 87.776 224.951 88.24H214.439C214.519 89.536 214.959 90.552 215.759 91.288C216.575 92.008 217.559 92.368 218.711 92.368C219.655 92.368 220.439 92.152 221.063 91.72C221.703 91.272 222.151 90.68 222.407 89.944H224.759C224.407 91.208 223.703 92.24 222.647 93.04C221.591 93.824 220.279 94.216 218.711 94.216C217.463 94.216 216.343 93.936 215.351 93.376C214.375 92.816 213.607 92.024 213.047 91C212.487 89.96 212.207 88.76 212.207 87.4C212.207 86.04 212.479 84.848 213.023 83.824C213.567 82.8 214.327 82.016 215.303 81.472C216.295 80.912 217.431 80.632 218.711 80.632C219.959 80.632 221.063 80.904 222.023 81.448C222.983 81.992 223.719 82.744 224.231 83.704C224.759 84.648 225.023 85.72 225.023 86.92ZM222.767 86.464C222.767 85.632 222.583 84.92 222.215 84.328C221.847 83.72 221.343 83.264 220.703 82.96C220.079 82.64 219.383 82.48 218.615 82.48C217.511 82.48 216.567 82.832 215.783 83.536C215.015 84.24 214.575 85.216 214.463 86.464H222.767ZM233.594 80.608C235.194 80.608 236.49 81.096 237.482 82.072C238.474 83.032 238.97 84.424 238.97 86.248V94H236.81V86.56C236.81 85.248 236.482 84.248 235.826 83.56C235.17 82.856 234.274 82.504 233.138 82.504C231.986 82.504 231.066 82.864 230.378 83.584C229.706 84.304 229.37 85.352 229.37 86.728V94H227.186V80.848H229.37V82.72C229.802 82.048 230.386 81.528 231.122 81.16C231.874 80.792 232.698 80.608 233.594 80.608ZM247.242 80.632C248.378 80.632 249.37 80.88 250.218 81.376C251.082 81.872 251.722 82.496 252.138 83.248V80.848H254.346V94.288C254.346 95.488 254.09 96.552 253.578 97.48C253.066 98.424 252.33 99.16 251.37 99.688C250.426 100.216 249.322 100.48 248.058 100.48C246.33 100.48 244.89 100.072 243.738 99.256C242.586 98.44 241.906 97.328 241.698 95.92H243.858C244.098 96.72 244.594 97.36 245.346 97.84C246.098 98.336 247.002 98.584 248.058 98.584C249.258 98.584 250.234 98.208 250.986 97.456C251.754 96.704 252.138 95.648 252.138 94.288V91.528C251.706 92.296 251.066 92.936 250.218 93.448C249.37 93.96 248.378 94.216 247.242 94.216C246.074 94.216 245.01 93.928 244.05 93.352C243.106 92.776 242.362 91.968 241.818 90.928C241.274 89.888 241.002 88.704 241.002 87.376C241.002 86.032 241.274 84.856 241.818 83.848C242.362 82.824 243.106 82.032 244.05 81.472C245.01 80.912 246.074 80.632 247.242 80.632ZM252.138 87.4C252.138 86.408 251.938 85.544 251.538 84.808C251.138 84.072 250.594 83.512 249.906 83.128C249.234 82.728 248.49 82.528 247.674 82.528C246.858 82.528 246.114 82.72 245.442 83.104C244.77 83.488 244.234 84.048 243.834 84.784C243.434 85.52 243.234 86.384 243.234 87.376C243.234 88.384 243.434 89.264 243.834 90.016C244.234 90.752 244.77 91.32 245.442 91.72C246.114 92.104 246.858 92.296 247.674 92.296C248.49 92.296 249.234 92.104 249.906 91.72C250.594 91.32 251.138 90.752 251.538 90.016C251.938 89.264 252.138 88.392 252.138 87.4ZM256.5 87.376C256.5 86.032 256.772 84.856 257.316 83.848C257.86 82.824 258.604 82.032 259.548 81.472C260.508 80.912 261.572 80.632 262.74 80.632C263.892 80.632 264.892 80.88 265.74 81.376C266.588 81.872 267.22 82.496 267.636 83.248V80.848H269.844V94H267.636V91.552C267.204 92.32 266.556 92.96 265.692 93.472C264.844 93.968 263.852 94.216 262.716 94.216C261.548 94.216 260.492 93.928 259.548 93.352C258.604 92.776 257.86 91.968 257.316 90.928C256.772 89.888 256.5 88.704 256.5 87.376ZM267.636 87.4C267.636 86.408 267.436 85.544 267.036 84.808C266.636 84.072 266.092 83.512 265.404 83.128C264.732 82.728 263.988 82.528 263.172 82.528C262.356 82.528 261.612 82.72 260.94 83.104C260.268 83.488 259.732 84.048 259.332 84.784C258.932 85.52 258.732 86.384 258.732 87.376C258.732 88.384 258.932 89.264 259.332 90.016C259.732 90.752 260.268 91.32 260.94 91.72C261.612 92.104 262.356 92.296 263.172 92.296C263.988 92.296 264.732 92.104 265.404 91.72C266.092 91.32 266.636 90.752 267.036 90.016C267.436 89.264 267.636 88.392 267.636 87.4ZM278.239 80.632C279.375 80.632 280.367 80.88 281.215 81.376C282.079 81.872 282.719 82.496 283.135 83.248V80.848H285.343V94.288C285.343 95.488 285.087 96.552 284.575 97.48C284.063 98.424 283.327 99.16 282.367 99.688C281.423 100.216 280.319 100.48 279.055 100.48C277.327 100.48 275.887 100.072 274.735 99.256C273.583 98.44 272.903 97.328 272.695 95.92H274.855C275.095 96.72 275.591 97.36 276.343 97.84C277.095 98.336 277.999 98.584 279.055 98.584C280.255 98.584 281.231 98.208 281.983 97.456C282.751 96.704 283.135 95.648 283.135 94.288V91.528C282.703 92.296 282.063 92.936 281.215 93.448C280.367 93.96 279.375 94.216 278.239 94.216C277.071 94.216 276.007 93.928 275.047 93.352C274.103 92.776 273.359 91.968 272.815 90.928C272.271 89.888 271.999 88.704 271.999 87.376C271.999 86.032 272.271 84.856 272.815 83.848C273.359 82.824 274.103 82.032 275.047 81.472C276.007 80.912 277.071 80.632 278.239 80.632ZM283.135 87.4C283.135 86.408 282.935 85.544 282.535 84.808C282.135 84.072 281.591 83.512 280.903 83.128C280.231 82.728 279.487 82.528 278.671 82.528C277.855 82.528 277.111 82.72 276.439 83.104C275.767 83.488 275.231 84.048 274.831 84.784C274.431 85.52 274.231 86.384 274.231 87.376C274.231 88.384 274.431 89.264 274.831 90.016C275.231 90.752 275.767 91.32 276.439 91.72C277.111 92.104 277.855 92.296 278.671 92.296C279.487 92.296 280.231 92.104 280.903 91.72C281.591 91.32 282.135 90.752 282.535 90.016C282.935 89.264 283.135 88.392 283.135 87.4ZM289.442 78.712C289.026 78.712 288.674 78.568 288.386 78.28C288.098 77.992 287.954 77.64 287.954 77.224C287.954 76.808 288.098 76.456 288.386 76.168C288.674 75.88 289.026 75.736 289.442 75.736C289.842 75.736 290.178 75.88 290.45 76.168C290.738 76.456 290.882 76.808 290.882 77.224C290.882 77.64 290.738 77.992 290.45 78.28C290.178 78.568 289.842 78.712 289.442 78.712ZM290.498 80.848V94H288.314V80.848H290.498ZM299.908 80.608C301.508 80.608 302.804 81.096 303.796 82.072C304.788 83.032 305.284 84.424 305.284 86.248V94H303.124V86.56C303.124 85.248 302.796 84.248 302.14 83.56C301.484 82.856 300.588 82.504 299.452 82.504C298.3 82.504 297.38 82.864 296.692 83.584C296.02 84.304 295.684 85.352 295.684 86.728V94H293.5V80.848H295.684V82.72C296.116 82.048 296.7 81.528 297.436 81.16C298.188 80.792 299.012 80.608 299.908 80.608ZM313.556 80.632C314.692 80.632 315.684 80.88 316.532 81.376C317.396 81.872 318.036 82.496 318.452 83.248V80.848H320.66V94.288C320.66 95.488 320.404 96.552 319.892 97.48C319.38 98.424 318.644 99.16 317.684 99.688C316.74 100.216 315.636 100.48 314.372 100.48C312.644 100.48 311.204 100.072 310.052 99.256C308.9 98.44 308.22 97.328 308.012 95.92H310.172C310.412 96.72 310.908 97.36 311.66 97.84C312.412 98.336 313.316 98.584 314.372 98.584C315.572 98.584 316.548 98.208 317.3 97.456C318.068 96.704 318.452 95.648 318.452 94.288V91.528C318.02 92.296 317.38 92.936 316.532 93.448C315.684 93.96 314.692 94.216 313.556 94.216C312.388 94.216 311.324 93.928 310.364 93.352C309.42 92.776 308.676 91.968 308.132 90.928C307.588 89.888 307.316 88.704 307.316 87.376C307.316 86.032 307.588 84.856 308.132 83.848C308.676 82.824 309.42 82.032 310.364 81.472C311.324 80.912 312.388 80.632 313.556 80.632ZM318.452 87.4C318.452 86.408 318.252 85.544 317.852 84.808C317.452 84.072 316.908 83.512 316.22 83.128C315.548 82.728 314.804 82.528 313.988 82.528C313.172 82.528 312.428 82.72 311.756 83.104C311.084 83.488 310.548 84.048 310.148 84.784C309.748 85.52 309.548 86.384 309.548 87.376C309.548 88.384 309.748 89.264 310.148 90.016C310.548 90.752 311.084 91.32 311.756 91.72C312.428 92.104 313.172 92.296 313.988 92.296C314.804 92.296 315.548 92.104 316.22 91.72C316.908 91.32 317.452 90.752 317.852 90.016C318.252 89.264 318.452 88.392 318.452 87.4ZM455.46 80.848V94H453.276V92.056C452.86 92.728 452.276 93.256 451.524 93.64C450.788 94.008 449.972 94.192 449.076 94.192C448.052 94.192 447.132 93.984 446.316 93.568C445.5 93.136 444.852 92.496 444.372 91.648C443.908 90.8 443.676 89.768 443.676 88.552V80.848H445.836V88.264C445.836 89.56 446.164 90.56 446.82 91.264C447.476 91.952 448.372 92.296 449.508 92.296C450.676 92.296 451.596 91.936 452.268 91.216C452.94 90.496 453.276 89.448 453.276 88.072V80.848H455.46ZM463.084 94.216C462.076 94.216 461.172 94.048 460.372 93.712C459.572 93.36 458.94 92.88 458.476 92.272C458.012 91.648 457.756 90.936 457.708 90.136H459.964C460.028 90.792 460.332 91.328 460.876 91.744C461.436 92.16 462.164 92.368 463.06 92.368C463.892 92.368 464.548 92.184 465.028 91.816C465.508 91.448 465.748 90.984 465.748 90.424C465.748 89.848 465.492 89.424 464.98 89.152C464.468 88.864 463.676 88.584 462.604 88.312C461.628 88.056 460.828 87.8 460.204 87.544C459.596 87.272 459.068 86.88 458.62 86.368C458.188 85.84 457.972 85.152 457.972 84.304C457.972 83.632 458.172 83.016 458.572 82.456C458.972 81.896 459.54 81.456 460.276 81.136C461.012 80.8 461.852 80.632 462.796 80.632C464.252 80.632 465.428 81 466.324 81.736C467.22 82.472 467.7 83.48 467.764 84.76H465.58C465.532 84.072 465.252 83.52 464.74 83.104C464.244 82.688 463.572 82.48 462.724 82.48C461.94 82.48 461.316 82.648 460.852 82.984C460.388 83.32 460.156 83.76 460.156 84.304C460.156 84.736 460.292 85.096 460.564 85.384C460.852 85.656 461.204 85.88 461.62 86.056C462.052 86.216 462.644 86.4 463.396 86.608C464.34 86.864 465.108 87.12 465.7 87.376C466.292 87.616 466.796 87.984 467.212 88.48C467.644 88.976 467.868 89.624 467.884 90.424C467.884 91.144 467.684 91.792 467.284 92.368C466.884 92.944 466.316 93.4 465.58 93.736C464.86 94.056 464.028 94.216 463.084 94.216ZM482.247 86.92C482.247 87.336 482.223 87.776 482.175 88.24H471.663C471.743 89.536 472.183 90.552 472.983 91.288C473.799 92.008 474.783 92.368 475.935 92.368C476.879 92.368 477.663 92.152 478.287 91.72C478.927 91.272 479.375 90.68 479.631 89.944H481.983C481.631 91.208 480.927 92.24 479.871 93.04C478.815 93.824 477.503 94.216 475.935 94.216C474.687 94.216 473.567 93.936 472.575 93.376C471.599 92.816 470.831 92.024 470.271 91C469.711 89.96 469.431 88.76 469.431 87.4C469.431 86.04 469.703 84.848 470.247 83.824C470.791 82.8 471.551 82.016 472.527 81.472C473.519 80.912 474.655 80.632 475.935 80.632C477.183 80.632 478.287 80.904 479.247 81.448C480.207 81.992 480.943 82.744 481.455 83.704C481.983 84.648 482.247 85.72 482.247 86.92ZM479.991 86.464C479.991 85.632 479.807 84.92 479.439 84.328C479.071 83.72 478.567 83.264 477.927 82.96C477.303 82.64 476.607 82.48 475.839 82.48C474.735 82.48 473.791 82.832 473.007 83.536C472.239 84.24 471.799 85.216 471.687 86.464H479.991ZM486.594 82.984C486.978 82.232 487.522 81.648 488.226 81.232C488.946 80.816 489.818 80.608 490.842 80.608V82.864H490.266C487.818 82.864 486.594 84.192 486.594 86.848V94H484.41V80.848H486.594V82.984ZM497.299 94.216C496.291 94.216 495.387 94.048 494.587 93.712C493.787 93.36 493.155 92.88 492.691 92.272C492.227 91.648 491.971 90.936 491.923 90.136H494.179C494.243 90.792 494.547 91.328 495.091 91.744C495.651 92.16 496.379 92.368 497.275 92.368C498.107 92.368 498.763 92.184 499.243 91.816C499.723 91.448 499.963 90.984 499.963 90.424C499.963 89.848 499.707 89.424 499.195 89.152C498.683 88.864 497.891 88.584 496.819 88.312C495.843 88.056 495.043 87.8 494.419 87.544C493.811 87.272 493.283 86.88 492.835 86.368C492.403 85.84 492.187 85.152 492.187 84.304C492.187 83.632 492.387 83.016 492.787 82.456C493.187 81.896 493.755 81.456 494.491 81.136C495.227 80.8 496.067 80.632 497.011 80.632C498.467 80.632 499.643 81 500.539 81.736C501.435 82.472 501.915 83.48 501.979 84.76H499.795C499.747 84.072 499.467 83.52 498.955 83.104C498.459 82.688 497.787 82.48 496.939 82.48C496.155 82.48 495.531 82.648 495.067 82.984C494.603 83.32 494.371 83.76 494.371 84.304C494.371 84.736 494.507 85.096 494.779 85.384C495.067 85.656 495.419 85.88 495.835 86.056C496.267 86.216 496.859 86.4 497.611 86.608C498.555 86.864 499.323 87.12 499.915 87.376C500.507 87.616 501.011 87.984 501.427 88.48C501.859 88.976 502.083 89.624 502.099 90.424C502.099 91.144 501.899 91.792 501.499 92.368C501.099 92.944 500.531 93.4 499.795 93.736C499.075 94.056 498.243 94.216 497.299 94.216ZM512.325 76.24V94H510.141V76.24H512.325ZM521.063 94.216C519.831 94.216 518.711 93.936 517.703 93.376C516.711 92.816 515.927 92.024 515.351 91C514.791 89.96 514.511 88.76 514.511 87.4C514.511 86.056 514.799 84.872 515.375 83.848C515.967 82.808 516.767 82.016 517.775 81.472C518.783 80.912 519.911 80.632 521.159 80.632C522.407 80.632 523.535 80.912 524.543 81.472C525.551 82.016 526.343 82.8 526.919 83.824C527.511 84.848 527.807 86.04 527.807 87.4C527.807 88.76 527.503 89.96 526.895 91C526.303 92.024 525.495 92.816 524.471 93.376C523.447 93.936 522.311 94.216 521.063 94.216ZM521.063 92.296C521.847 92.296 522.583 92.112 523.271 91.744C523.959 91.376 524.511 90.824 524.927 90.088C525.359 89.352 525.575 88.456 525.575 87.4C525.575 86.344 525.367 85.448 524.951 84.712C524.535 83.976 523.991 83.432 523.319 83.08C522.647 82.712 521.919 82.528 521.135 82.528C520.335 82.528 519.599 82.712 518.927 83.08C518.271 83.432 517.743 83.976 517.343 84.712C516.943 85.448 516.743 86.344 516.743 87.4C516.743 88.472 516.935 89.376 517.319 90.112C517.719 90.848 518.247 91.4 518.903 91.768C519.559 92.12 520.279 92.296 521.063 92.296ZM534.854 91.984L538.934 80.848H541.262L536.102 94H533.558L528.398 80.848H530.75L534.854 91.984ZM554.691 86.92C554.691 87.336 554.667 87.776 554.619 88.24H544.107C544.187 89.536 544.627 90.552 545.427 91.288C546.243 92.008 547.227 92.368 548.379 92.368C549.323 92.368 550.107 92.152 550.731 91.72C551.371 91.272 551.819 90.68 552.075 89.944H554.427C554.075 91.208 553.371 92.24 552.315 93.04C551.259 93.824 549.947 94.216 548.379 94.216C547.131 94.216 546.011 93.936 545.019 93.376C544.043 92.816 543.275 92.024 542.715 91C542.155 89.96 541.875 88.76 541.875 87.4C541.875 86.04 542.147 84.848 542.691 83.824C543.235 82.8 543.995 82.016 544.971 81.472C545.963 80.912 547.099 80.632 548.379 80.632C549.627 80.632 550.731 80.904 551.691 81.448C552.651 81.992 553.387 82.744 553.899 83.704C554.427 84.648 554.691 85.72 554.691 86.92ZM552.435 86.464C552.435 85.632 552.251 84.92 551.883 84.328C551.515 83.72 551.011 83.264 550.371 82.96C549.747 82.64 549.051 82.48 548.283 82.48C547.179 82.48 546.235 82.832 545.451 83.536C544.683 84.24 544.243 85.216 544.131 86.464H552.435ZM559.686 77.272L559.422 89.272H557.598L557.334 77.272H559.686ZM558.606 94.144C558.19 94.144 557.838 94 557.55 93.712C557.262 93.424 557.118 93.072 557.118 92.656C557.118 92.24 557.262 91.888 557.55 91.6C557.838 91.312 558.19 91.168 558.606 91.168C559.006 91.168 559.342 91.312 559.614 91.6C559.902 91.888 560.046 92.24 560.046 92.656C560.046 93.072 559.902 93.424 559.614 93.712C559.342 94 559.006 94.144 558.606 94.144Z" fill="white"/>
<path d="M334.661 82.648H331.901V94H329.717V82.648H328.013V80.848H329.717V79.912C329.717 78.44 330.093 77.368 330.845 76.696C331.613 76.008 332.837 75.664 334.517 75.664V77.488C333.557 77.488 332.877 77.68 332.477 78.064C332.093 78.432 331.901 79.048 331.901 79.912V80.848H334.661V82.648ZM338.671 82.984C339.055 82.232 339.599 81.648 340.303 81.232C341.023 80.816 341.895 80.608 342.919 80.608V82.864H342.343C339.895 82.864 338.671 84.192 338.671 86.848V94H336.487V80.848H338.671V82.984ZM350.456 94.216C349.224 94.216 348.104 93.936 347.096 93.376C346.104 92.816 345.32 92.024 344.744 91C344.184 89.96 343.904 88.76 343.904 87.4C343.904 86.056 344.192 84.872 344.768 83.848C345.36 82.808 346.16 82.016 347.168 81.472C348.176 80.912 349.304 80.632 350.552 80.632C351.8 80.632 352.928 80.912 353.936 81.472C354.944 82.016 355.736 82.8 356.312 83.824C356.904 84.848 357.2 86.04 357.2 87.4C357.2 88.76 356.896 89.96 356.288 91C355.696 92.024 354.888 92.816 353.864 93.376C352.84 93.936 351.704 94.216 350.456 94.216ZM350.456 92.296C351.24 92.296 351.976 92.112 352.664 91.744C353.352 91.376 353.904 90.824 354.32 90.088C354.752 89.352 354.968 88.456 354.968 87.4C354.968 86.344 354.76 85.448 354.344 84.712C353.928 83.976 353.384 83.432 352.712 83.08C352.04 82.712 351.312 82.528 350.528 82.528C349.728 82.528 348.992 82.712 348.32 83.08C347.664 83.432 347.136 83.976 346.736 84.712C346.336 85.448 346.136 86.344 346.136 87.4C346.136 88.472 346.328 89.376 346.712 90.112C347.112 90.848 347.64 91.4 348.296 91.768C348.952 92.12 349.672 92.296 350.456 92.296ZM365.76 80.608C367.36 80.608 368.656 81.096 369.648 82.072C370.64 83.032 371.136 84.424 371.136 86.248V94H368.976V86.56C368.976 85.248 368.648 84.248 367.992 83.56C367.336 82.856 366.44 82.504 365.304 82.504C364.152 82.504 363.232 82.864 362.544 83.584C361.872 84.304 361.536 85.352 361.536 86.728V94H359.352V80.848H361.536V82.72C361.968 82.048 362.552 81.528 363.288 81.16C364.04 80.792 364.864 80.608 365.76 80.608ZM376.648 82.648V90.4C376.648 91.04 376.784 91.496 377.056 91.768C377.328 92.024 377.8 92.152 378.472 92.152H380.08V94H378.112C376.896 94 375.984 93.72 375.376 93.16C374.768 92.6 374.464 91.68 374.464 90.4V82.648H372.76V80.848H374.464V77.536H376.648V80.848H380.08V82.648H376.648ZM394.006 86.92C394.006 87.336 393.982 87.776 393.934 88.24H383.422C383.502 89.536 383.942 90.552 384.742 91.288C385.558 92.008 386.542 92.368 387.694 92.368C388.638 92.368 389.422 92.152 390.046 91.72C390.686 91.272 391.134 90.68 391.39 89.944H393.742C393.39 91.208 392.686 92.24 391.63 93.04C390.574 93.824 389.262 94.216 387.694 94.216C386.446 94.216 385.326 93.936 384.334 93.376C383.358 92.816 382.59 92.024 382.03 91C381.47 89.96 381.19 88.76 381.19 87.4C381.19 86.04 381.462 84.848 382.006 83.824C382.55 82.8 383.31 82.016 384.286 81.472C385.278 80.912 386.414 80.632 387.694 80.632C388.942 80.632 390.046 80.904 391.006 81.448C391.966 81.992 392.702 82.744 393.214 83.704C393.742 84.648 394.006 85.72 394.006 86.92ZM391.75 86.464C391.75 85.632 391.566 84.92 391.198 84.328C390.83 83.72 390.326 83.264 389.686 82.96C389.062 82.64 388.366 82.48 387.598 82.48C386.494 82.48 385.55 82.832 384.766 83.536C383.998 84.24 383.558 85.216 383.446 86.464H391.75ZM402.577 80.608C404.177 80.608 405.473 81.096 406.465 82.072C407.457 83.032 407.953 84.424 407.953 86.248V94H405.793V86.56C405.793 85.248 405.465 84.248 404.809 83.56C404.153 82.856 403.257 82.504 402.121 82.504C400.969 82.504 400.049 82.864 399.361 83.584C398.689 84.304 398.353 85.352 398.353 86.728V94H396.169V80.848H398.353V82.72C398.785 82.048 399.369 81.528 400.105 81.16C400.857 80.792 401.681 80.608 402.577 80.608ZM409.984 87.376C409.984 86.032 410.256 84.856 410.8 83.848C411.344 82.824 412.088 82.032 413.032 81.472C413.992 80.912 415.064 80.632 416.248 80.632C417.272 80.632 418.224 80.872 419.104 81.352C419.984 81.816 420.656 82.432 421.12 83.2V76.24H423.328V94H421.12V91.528C420.688 92.312 420.048 92.96 419.2 93.472C418.352 93.968 417.36 94.216 416.224 94.216C415.056 94.216 413.992 93.928 413.032 93.352C412.088 92.776 411.344 91.968 410.8 90.928C410.256 89.888 409.984 88.704 409.984 87.376ZM421.12 87.4C421.12 86.408 420.92 85.544 420.52 84.808C420.12 84.072 419.576 83.512 418.888 83.128C418.216 82.728 417.472 82.528 416.656 82.528C415.84 82.528 415.096 82.72 414.424 83.104C413.752 83.488 413.216 84.048 412.816 84.784C412.416 85.52 412.216 86.384 412.216 87.376C412.216 88.384 412.416 89.264 412.816 90.016C413.216 90.752 413.752 91.32 414.424 91.72C415.096 92.104 415.84 92.296 416.656 92.296C417.472 92.296 418.216 92.104 418.888 91.72C419.576 91.32 420.12 90.752 420.52 90.016C420.92 89.264 421.12 88.392 421.12 87.4ZM430.955 94.216C429.947 94.216 429.043 94.048 428.243 93.712C427.443 93.36 426.811 92.88 426.347 92.272C425.883 91.648 425.627 90.936 425.579 90.136H427.835C427.899 90.792 428.203 91.328 428.747 91.744C429.307 92.16 430.035 92.368 430.931 92.368C431.763 92.368 432.419 92.184 432.899 91.816C433.379 91.448 433.619 90.984 433.619 90.424C433.619 89.848 433.363 89.424 432.851 89.152C432.339 88.864 431.547 88.584 430.475 88.312C429.499 88.056 428.699 87.8 428.075 87.544C427.467 87.272 426.939 86.88 426.491 86.368C426.059 85.84 425.843 85.152 425.843 84.304C425.843 83.632 426.043 83.016 426.443 82.456C426.843 81.896 427.411 81.456 428.147 81.136C428.883 80.8 429.723 80.632 430.667 80.632C432.123 80.632 433.299 81 434.195 81.736C435.091 82.472 435.571 83.48 435.635 84.76H433.451C433.403 84.072 433.123 83.52 432.611 83.104C432.115 82.688 431.443 82.48 430.595 82.48C429.811 82.48 429.187 82.648 428.723 82.984C428.259 83.32 428.027 83.76 428.027 84.304C428.027 84.736 428.163 85.096 428.435 85.384C428.723 85.656 429.075 85.88 429.491 86.056C429.923 86.216 430.515 86.4 431.267 86.608C432.211 86.864 432.979 87.12 433.571 87.376C434.163 87.616 434.667 87.984 435.083 88.48C435.515 88.976 435.739 89.624 435.755 90.424C435.755 91.144 435.555 91.792 435.155 92.368C434.755 92.944 434.187 93.4 433.451 93.736C432.731 94.056 431.899 94.216 430.955 94.216Z" fill="#FF0000"/>
<path d="M1116.1 79.244V84.649H1126.67V91.652H1116.1V97.621H1128.08V105H1106.89V71.865H1128.08V79.244H1116.1ZM1153.69 71.865V79.197H1140.44V85.025H1150.21V92.028H1140.44V105H1131.22V71.865H1153.69ZM1178.63 71.865V79.197H1165.37V85.025H1175.15V92.028H1165.37V105H1156.16V71.865H1178.63ZM1190.31 71.865V105H1181.1V71.865H1190.31ZM1193.02 88.362C1193.02 85.1033 1193.69 82.205 1195.04 79.667C1196.42 77.0977 1198.36 75.108 1200.87 73.698C1203.37 72.2567 1206.25 71.536 1209.51 71.536C1213.65 71.536 1217.13 72.6483 1219.95 74.873C1222.77 77.0663 1224.58 80.0587 1225.4 83.85H1215.48C1214.89 82.5967 1214.06 81.641 1212.99 80.983C1211.96 80.325 1210.75 79.996 1209.37 79.996C1207.24 79.996 1205.53 80.7637 1204.25 82.299C1203 83.803 1202.37 85.824 1202.37 88.362C1202.37 90.9313 1203 92.9837 1204.25 94.519C1205.53 96.023 1207.24 96.775 1209.37 96.775C1210.75 96.775 1211.96 96.446 1212.99 95.788C1214.06 95.13 1214.89 94.1743 1215.48 92.921H1225.4C1224.58 96.7123 1222.77 99.7203 1219.95 101.945C1217.13 104.138 1213.65 105.235 1209.51 105.235C1206.25 105.235 1203.37 104.53 1200.87 103.12C1198.36 101.679 1196.42 99.689 1195.04 97.151C1193.69 94.5817 1193.02 91.652 1193.02 88.362ZM1237.56 71.865V105H1228.35V71.865H1237.56ZM1250.61 79.244V84.649H1261.19V91.652H1250.61V97.621H1262.6V105H1241.4V71.865H1262.6V79.244H1250.61ZM1296.43 105H1287.22L1274.95 86.482V105H1265.74V71.865H1274.95L1287.22 90.618V71.865H1296.43V105ZM1325.22 71.865V79.197H1316.39V105H1307.18V79.197H1298.43V71.865H1325.22ZM999.748 155.865V175.088C999.748 176.874 1000.16 178.253 1000.97 179.224C1001.82 180.195 1003.09 180.681 1004.78 180.681C1006.47 180.681 1007.74 180.195 1008.58 179.224C1009.46 178.221 1009.9 176.843 1009.9 175.088V155.865H1019.11V175.088C1019.11 178.127 1018.47 180.728 1017.19 182.89C1015.9 185.021 1014.15 186.634 1011.92 187.731C1009.73 188.796 1007.28 189.329 1004.59 189.329C1001.89 189.329 999.482 188.796 997.351 187.731C995.252 186.634 993.591 185.021 992.369 182.89C991.178 180.759 990.583 178.159 990.583 175.088V155.865H999.748ZM1035.28 189.329C1031.42 189.329 1028.26 188.42 1025.78 186.603C1023.31 184.754 1021.98 182.122 1021.79 178.707H1031.61C1031.7 179.866 1032.05 180.712 1032.64 181.245C1033.24 181.778 1034.01 182.044 1034.95 182.044C1035.79 182.044 1036.48 181.84 1037.02 181.433C1037.58 180.994 1037.86 180.399 1037.86 179.647C1037.86 178.676 1037.41 177.924 1036.5 177.391C1035.59 176.858 1034.12 176.263 1032.08 175.605C1029.92 174.884 1028.16 174.195 1026.82 173.537C1025.5 172.848 1024.34 171.861 1023.34 170.576C1022.37 169.26 1021.88 167.552 1021.88 165.453C1021.88 163.322 1022.41 161.505 1023.48 160.001C1024.54 158.466 1026.02 157.306 1027.9 156.523C1029.78 155.74 1031.91 155.348 1034.29 155.348C1038.14 155.348 1041.21 156.257 1043.5 158.074C1045.82 159.86 1047.06 162.382 1047.21 165.641H1037.2C1037.17 164.638 1036.86 163.886 1036.26 163.385C1035.7 162.884 1034.96 162.633 1034.05 162.633C1033.36 162.633 1032.8 162.837 1032.36 163.244C1031.92 163.651 1031.7 164.231 1031.7 164.983C1031.7 165.61 1031.94 166.158 1032.41 166.628C1032.91 167.067 1033.52 167.458 1034.24 167.803C1034.96 168.116 1036.03 168.524 1037.44 169.025C1039.54 169.746 1041.26 170.466 1042.61 171.187C1043.99 171.876 1045.16 172.863 1046.13 174.148C1047.14 175.401 1047.64 176.999 1047.64 178.942C1047.64 180.916 1047.14 182.686 1046.13 184.253C1045.16 185.82 1043.74 187.057 1041.86 187.966C1040.01 188.875 1037.81 189.329 1035.28 189.329ZM1059.72 163.244V168.649H1070.3V175.652H1059.72V181.621H1071.71V189H1050.51V155.865H1071.71V163.244H1059.72ZM1091.63 189L1085.05 176.78H1084.06V189H1074.85V155.865H1089.37C1092.03 155.865 1094.29 156.335 1096.14 157.275C1097.99 158.184 1099.38 159.453 1100.32 161.082C1101.26 162.68 1101.73 164.482 1101.73 166.487C1101.73 168.743 1101.11 170.733 1099.85 172.456C1098.63 174.148 1096.83 175.354 1094.45 176.075L1101.92 189H1091.63ZM1084.06 170.482H1088.62C1089.87 170.482 1090.81 170.184 1091.44 169.589C1092.07 168.994 1092.38 168.132 1092.38 167.004C1092.38 165.939 1092.05 165.108 1091.39 164.513C1090.77 163.886 1089.84 163.573 1088.62 163.573H1084.06V170.482ZM1124.86 168.884V176.545H1103.57V168.884H1124.86ZM1129.15 172.362C1129.15 169.103 1129.82 166.205 1131.17 163.667C1132.55 161.098 1134.49 159.108 1136.99 157.698C1139.5 156.257 1142.38 155.536 1145.64 155.536C1149.78 155.536 1153.26 156.648 1156.08 158.873C1158.9 161.066 1160.71 164.059 1161.53 167.85H1151.61C1151.02 166.597 1150.19 165.641 1149.12 164.983C1148.09 164.325 1146.88 163.996 1145.5 163.996C1143.37 163.996 1141.66 164.764 1140.38 166.299C1139.13 167.803 1138.5 169.824 1138.5 172.362C1138.5 174.931 1139.13 176.984 1140.38 178.519C1141.66 180.023 1143.37 180.775 1145.5 180.775C1146.88 180.775 1148.09 180.446 1149.12 179.788C1150.19 179.13 1151.02 178.174 1151.61 176.921H1161.53C1160.71 180.712 1158.9 183.72 1156.08 185.945C1153.26 188.138 1149.78 189.235 1145.64 189.235C1142.38 189.235 1139.5 188.53 1136.99 187.12C1134.49 185.679 1132.55 183.689 1131.17 181.151C1129.82 178.582 1129.15 175.652 1129.15 172.362ZM1173.69 163.244V168.649H1184.27V175.652H1173.69V181.621H1185.68V189H1164.48V155.865H1185.68V163.244H1173.69ZM1219.51 189H1210.3L1198.03 170.482V189H1188.82V155.865H1198.03L1210.3 174.618V155.865H1219.51V189ZM1248.31 155.865V163.197H1239.47V189H1230.26V163.197H1221.52V155.865H1248.31ZM1267.08 189L1260.5 176.78H1259.52V189H1250.3V155.865H1264.83C1267.49 155.865 1269.75 156.335 1271.59 157.275C1273.44 158.184 1274.84 159.453 1275.78 161.082C1276.72 162.68 1277.19 164.482 1277.19 166.487C1277.19 168.743 1276.56 170.733 1275.31 172.456C1274.09 174.148 1272.28 175.354 1269.9 176.075L1277.38 189H1267.08ZM1259.52 170.482H1264.07C1265.33 170.482 1266.27 170.184 1266.89 169.589C1267.52 168.994 1267.83 168.132 1267.83 167.004C1267.83 165.939 1267.51 165.108 1266.85 164.513C1266.22 163.886 1265.3 163.573 1264.07 163.573H1259.52V170.482ZM1289.18 155.865V189H1279.97V155.865H1289.18ZM1291.89 172.362C1291.89 169.103 1292.56 166.205 1293.91 163.667C1295.29 161.098 1297.23 159.108 1299.74 157.698C1302.24 156.257 1305.13 155.536 1308.38 155.536C1312.52 155.536 1316 156.648 1318.82 158.873C1321.64 161.066 1323.46 164.059 1324.27 167.85H1314.35C1313.76 166.597 1312.93 165.641 1311.86 164.983C1310.83 164.325 1309.62 163.996 1308.24 163.996C1306.11 163.996 1304.4 164.764 1303.12 166.299C1301.87 167.803 1301.24 169.824 1301.24 172.362C1301.24 174.931 1301.87 176.984 1303.12 178.519C1304.4 180.023 1306.11 180.775 1308.24 180.775C1309.62 180.775 1310.83 180.446 1311.86 179.788C1312.93 179.13 1313.76 178.174 1314.35 176.921H1324.27C1323.46 180.712 1321.64 183.72 1318.82 185.945C1316 188.138 1312.52 189.235 1308.38 189.235C1305.13 189.235 1302.24 188.53 1299.74 187.12C1297.23 185.679 1295.29 183.689 1293.91 181.151C1292.56 178.582 1291.89 175.652 1291.89 172.362Z" fill="white"/>
<path d="M1064.86 147L1058.28 134.78H1057.29V147H1048.08V113.865H1062.6C1065.26 113.865 1067.52 114.335 1069.37 115.275C1071.22 116.184 1072.61 117.453 1073.55 119.082C1074.49 120.68 1074.96 122.482 1074.96 124.487C1074.96 126.743 1074.33 128.733 1073.08 130.456C1071.86 132.148 1070.06 133.354 1067.68 134.075L1075.15 147H1064.86ZM1057.29 128.482H1061.85C1063.1 128.482 1064.04 128.184 1064.67 127.589C1065.29 126.994 1065.61 126.132 1065.61 125.004C1065.61 123.939 1065.28 123.108 1064.62 122.513C1063.99 121.886 1063.07 121.573 1061.85 121.573H1057.29V128.482ZM1086.95 121.244V126.649H1097.53V133.652H1086.95V139.621H1098.94V147H1077.74V113.865H1098.94V121.244H1086.95ZM1114.58 147.329C1110.73 147.329 1107.56 146.42 1105.09 144.603C1102.61 142.754 1101.28 140.122 1101.09 136.707H1110.92C1111.01 137.866 1111.35 138.712 1111.95 139.245C1112.54 139.778 1113.31 140.044 1114.25 140.044C1115.1 140.044 1115.79 139.84 1116.32 139.433C1116.88 138.994 1117.17 138.399 1117.17 137.647C1117.17 136.676 1116.71 135.924 1115.8 135.391C1114.89 134.858 1113.42 134.263 1111.39 133.605C1109.22 132.884 1107.47 132.195 1106.12 131.537C1104.81 130.848 1103.65 129.861 1102.64 128.576C1101.67 127.26 1101.19 125.552 1101.19 123.453C1101.19 121.322 1101.72 119.505 1102.78 118.001C1103.85 116.466 1105.32 115.306 1107.2 114.523C1109.08 113.74 1111.21 113.348 1113.59 113.348C1117.45 113.348 1120.52 114.257 1122.81 116.074C1125.12 117.86 1126.36 120.382 1126.52 123.641H1116.51C1116.48 122.638 1116.16 121.886 1115.57 121.385C1115 120.884 1114.27 120.633 1113.36 120.633C1112.67 120.633 1112.11 120.837 1111.67 121.244C1111.23 121.651 1111.01 122.231 1111.01 122.983C1111.01 123.61 1111.24 124.158 1111.71 124.628C1112.22 125.067 1112.83 125.458 1113.55 125.803C1114.27 126.116 1115.33 126.524 1116.74 127.025C1118.84 127.746 1120.57 128.466 1121.91 129.187C1123.29 129.876 1124.47 130.863 1125.44 132.148C1126.44 133.401 1126.94 134.999 1126.94 136.942C1126.94 138.916 1126.44 140.686 1125.44 142.253C1124.47 143.82 1123.04 145.057 1121.16 145.966C1119.31 146.875 1117.12 147.329 1114.58 147.329ZM1155.99 124.91C1155.99 126.915 1155.52 128.748 1154.58 130.409C1153.67 132.038 1152.28 133.354 1150.4 134.357C1148.55 135.328 1146.28 135.814 1143.59 135.814H1139.03V147H1129.81V113.865H1143.59C1146.25 113.865 1148.5 114.335 1150.35 115.275C1152.23 116.215 1153.64 117.515 1154.58 119.176C1155.52 120.837 1155.99 122.748 1155.99 124.91ZM1142.69 128.482C1145.29 128.482 1146.59 127.291 1146.59 124.91C1146.59 122.497 1145.29 121.291 1142.69 121.291H1139.03V128.482H1142.69ZM1174.17 147.329C1171.07 147.329 1168.22 146.608 1165.62 145.167C1163.02 143.694 1160.95 141.673 1159.41 139.104C1157.91 136.503 1157.16 133.574 1157.16 130.315C1157.16 127.056 1157.91 124.142 1159.41 121.573C1160.95 118.972 1163.02 116.951 1165.62 115.51C1168.22 114.069 1171.07 113.348 1174.17 113.348C1177.3 113.348 1180.16 114.069 1182.72 115.51C1185.33 116.951 1187.38 118.972 1188.88 121.573C1190.39 124.142 1191.14 127.056 1191.14 130.315C1191.14 133.574 1190.39 136.503 1188.88 139.104C1187.38 141.673 1185.33 143.694 1182.72 145.167C1180.12 146.608 1177.27 147.329 1174.17 147.329ZM1174.17 138.775C1176.52 138.775 1178.37 138.007 1179.72 136.472C1181.1 134.937 1181.78 132.884 1181.78 130.315C1181.78 127.683 1181.1 125.615 1179.72 124.111C1178.37 122.576 1176.52 121.808 1174.17 121.808C1171.79 121.808 1169.92 122.576 1168.58 124.111C1167.23 125.615 1166.56 127.683 1166.56 130.315C1166.56 132.916 1167.23 134.984 1168.58 136.519C1169.92 138.023 1171.79 138.775 1174.17 138.775ZM1224.56 147H1215.35L1203.08 128.482V147H1193.87V113.865H1203.08L1215.35 132.618V113.865H1224.56V147ZM1240.9 147.329C1237.05 147.329 1233.88 146.42 1231.41 144.603C1228.93 142.754 1227.6 140.122 1227.41 136.707H1237.23C1237.33 137.866 1237.67 138.712 1238.27 139.245C1238.86 139.778 1239.63 140.044 1240.57 140.044C1241.42 140.044 1242.11 139.84 1242.64 139.433C1243.2 138.994 1243.48 138.399 1243.48 137.647C1243.48 136.676 1243.03 135.924 1242.12 135.391C1241.21 134.858 1239.74 134.263 1237.7 133.605C1235.54 132.884 1233.79 132.195 1232.44 131.537C1231.12 130.848 1229.96 129.861 1228.96 128.576C1227.99 127.26 1227.5 125.552 1227.5 123.453C1227.5 121.322 1228.04 119.505 1229.1 118.001C1230.17 116.466 1231.64 115.306 1233.52 114.523C1235.4 113.74 1237.53 113.348 1239.91 113.348C1243.77 113.348 1246.84 114.257 1249.12 116.074C1251.44 117.86 1252.68 120.382 1252.84 123.641H1242.83C1242.79 122.638 1242.48 121.886 1241.89 121.385C1241.32 120.884 1240.59 120.633 1239.68 120.633C1238.99 120.633 1238.42 120.837 1237.99 121.244C1237.55 121.651 1237.33 122.231 1237.33 122.983C1237.33 123.61 1237.56 124.158 1238.03 124.628C1238.53 125.067 1239.14 125.458 1239.87 125.803C1240.59 126.116 1241.65 126.524 1243.06 127.025C1245.16 127.746 1246.88 128.466 1248.23 129.187C1249.61 129.876 1250.78 130.863 1251.76 132.148C1252.76 133.401 1253.26 134.999 1253.26 136.942C1253.26 138.916 1252.76 140.686 1251.76 142.253C1250.78 143.82 1249.36 145.057 1247.48 145.966C1245.63 146.875 1243.44 147.329 1240.9 147.329ZM1265.34 113.865V147H1256.13V113.865H1265.34ZM1301.42 113.865L1290 147H1278.2L1266.74 113.865H1276.61L1284.13 137.788L1291.6 113.865H1301.42ZM1312.09 121.244V126.649H1322.67V133.652H1312.09V139.621H1324.08V147H1302.88V113.865H1324.08V121.244H1312.09Z" fill="#FF0000"/>
<path d="M1081.89 257H1078.78C1078.16 257 1077.67 257.497 1077.67 258.111V261.222C1077.67 261.835 1078.16 262.333 1078.78 262.333H1081.89C1082.5 262.333 1083 261.835 1083 261.222V258.111C1083 257.497 1082.5 257 1081.89 257Z" fill="#FF0000"/>
<path d="M1083 268.777V271.887C1083 272.501 1082.5 272.998 1081.89 272.998H1078.78C1078.16 272.998 1077.67 272.501 1077.67 271.887V268.777C1077.67 268.163 1077.17 267.666 1076.55 267.666H1073.44C1072.83 267.666 1072.33 268.163 1072.33 268.777V271.887C1072.33 272.501 1071.84 272.998 1071.22 272.998H1068.11C1067.5 272.998 1067 272.501 1067 271.887V268.777C1067 268.163 1067.5 267.666 1068.11 267.666H1071.22C1071.84 267.666 1072.33 267.168 1072.33 266.555V263.444C1072.33 262.831 1071.84 262.333 1071.22 262.333H1068.11C1067.5 262.333 1067 261.835 1067 261.222V258.111C1067 257.498 1067.5 257 1068.11 257H1071.22C1071.84 257 1072.33 257.498 1072.33 258.111V261.222C1072.33 261.835 1072.83 262.333 1073.44 262.333H1076.55C1077.17 262.333 1077.67 262.831 1077.67 263.444V266.555C1077.67 267.168 1078.16 267.666 1078.78 267.666H1081.89C1082.5 267.666 1083 268.163 1083 268.777Z" fill="white"/>
<path d="M1096.25 273H1093.12V260.5H1090V257.375H1099.38V260.5H1096.25V273ZM1118 269.875V273H1105.5V257.375H1118V260.5H1108.62V263.625H1114.88V266.75H1108.62V269.875H1118ZM1127.25 260.5V257.375H1133.5V260.5H1127.25ZM1127.25 269.875H1124.12V260.5H1127.25V269.875ZM1133.5 263.625V260.5H1136.62V263.625H1133.5ZM1136.62 269.875H1133.5V266.75H1136.62V269.875ZM1133.5 269.875V273H1127.25V269.875H1133.5ZM1145.88 273H1142.75V257.375H1145.88V263.625H1152.12V257.375H1155.25V273H1152.12V266.75H1145.88V273ZM1164.5 273H1161.38V257.375H1164.5V260.5H1167.62V263.625H1164.5V273ZM1177 273H1173.88V263.625H1170.75V260.5H1173.88V257.375H1177V273ZM1167.62 266.75V263.625H1170.75V266.75H1167.62ZM1195.62 269.875V273H1183.12V257.375H1195.62V260.5H1186.25V263.625H1192.5V266.75H1186.25V269.875H1195.62ZM1204.88 273H1201.75V257.375H1204.88V260.5H1208V263.625H1204.88V273ZM1214.25 273H1211.12V266.75H1208V263.625H1211.12V257.375H1214.25V273ZM1226.62 273H1223.5V260.5H1220.38V257.375H1229.75V260.5H1226.62V273ZM1239 260.5V257.375H1245.25V260.5H1239ZM1239 269.875H1235.88V260.5H1239V269.875ZM1248.38 269.875H1245.25V260.5H1248.38V269.875ZM1245.25 269.875V273H1239V269.875H1245.25ZM1257.62 273H1254.5V257.375H1263.88V260.5H1257.62V263.625H1263.88V266.75H1257.62V273ZM1267 263.625H1263.88V260.5H1267V263.625ZM1267 273H1263.88V266.75H1267V273ZM1276.25 273H1273.12V257.375H1276.25V263.625H1282.5V257.375H1285.62V273H1282.5V266.75H1276.25V273ZM1294.88 269.875H1291.75V257.375H1294.88V269.875ZM1304.25 269.875H1301.12V257.375H1304.25V269.875ZM1301.12 269.875V273H1294.88V269.875H1301.12ZM1313.5 269.875H1319.75V273H1310.38V257.375H1319.75V260.5H1313.5V263.625H1319.75V266.75H1313.5V269.875ZM1322.88 263.625H1319.75V260.5H1322.88V263.625ZM1322.88 269.875H1319.75V266.75H1322.88V269.875Z" fill="white"/>
</svg>
