<svg width="16" height="16" viewBox="0 0 16 16" fill="none" xmlns="http://www.w3.org/2000/svg">
<g clip-path="url(#clip0_365_1135)">
<path d="M14.8887 0H11.7776C11.164 0 10.6665 0.497461 10.6665 1.11111V4.22222C10.6665 4.83587 11.164 5.33333 11.7776 5.33333H14.8887C15.5024 5.33333 15.9998 4.83587 15.9998 4.22222V1.11111C15.9998 0.497461 15.5024 0 14.8887 0Z" fill="#FF0000"/>
<path d="M16 11.7778V14.8889C16 15.5022 15.5022 16 14.8889 16H11.7778C11.1644 16 10.6667 15.5022 10.6667 14.8889V11.7778C10.6667 11.1644 10.1689 10.6667 9.55556 10.6667H6.44444C5.83111 10.6667 5.33333 11.1644 5.33333 11.7778V14.8889C5.33333 15.5022 4.83556 16 4.22222 16H1.11111C0.497778 16 0 15.5022 0 14.8889V11.7778C0 11.1644 0.497778 10.6667 1.11111 10.6667H4.22222C4.83556 10.6667 5.33333 10.1689 5.33333 9.55556V6.44444C5.33333 5.83111 4.83556 5.33333 4.22222 5.33333H1.11111C0.497778 5.33333 0 4.83556 0 4.22222V1.11111C0 0.497778 0.497778 0 1.11111 0H4.22222C4.83556 0 5.33333 0.497778 5.33333 1.11111V4.22222C5.33333 4.83556 5.83111 5.33333 6.44444 5.33333H9.55556C10.1689 5.33333 10.6667 5.83111 10.6667 6.44444V9.55556C10.6667 10.1689 11.1644 10.6667 11.7778 10.6667H14.8889C15.5022 10.6667 16 11.1644 16 11.7778Z" fill="white"/>
</g>
<defs>
<clipPath id="clip0_365_1135">
<rect width="16" height="16" fill="white"/>
</clipPath>
</defs>
</svg>
