<svg width="36" height="36" viewBox="0 0 36 36" fill="none" xmlns="http://www.w3.org/2000/svg">
<g clip-path="url(#clip0_365_1135)">
<path d="M33.5 0H26.5C25.1193 0 24 1.11929 24 2.5V9.5C24 10.8807 25.1193 12 26.5 12H33.5C34.8807 12 36 10.8807 36 9.5V2.5C36 1.11929 34.8807 0 33.5 0Z" fill="#FF0000"/>
<path d="M36 26.5V33.5C36 34.88 34.88 36 33.5 36H26.5C25.12 36 24 34.88 24 33.5V26.5C24 25.12 22.88 24 21.5 24H14.5C13.12 24 12 25.12 12 26.5V33.5C12 34.88 10.88 36 9.5 36H2.5C1.12 36 0 34.88 0 33.5V26.5C0 25.12 1.12 24 2.5 24H9.5C10.88 24 12 22.88 12 21.5V14.5C12 13.12 10.88 12 9.5 12H2.5C1.12 12 0 10.88 0 9.5V2.5C0 1.12 1.12 0 2.5 0H9.5C10.88 0 12 1.12 12 2.5V9.5C12 10.88 13.12 12 14.5 12H21.5C22.88 12 24 13.12 24 14.5V21.5C24 22.88 25.12 24 26.5 24H33.5C34.88 24 36 25.12 36 26.5Z" fill="white"/>
</g>
<defs>
<clipPath id="clip0_365_1135">
<rect width="36" height="36" fill="white"/>
</clipPath>
</defs>
</svg>
