<svg width="24" height="24" viewBox="0 0 24 24" fill="none" xmlns="http://www.w3.org/2000/svg">
<rect width="24" height="24" rx="2" fill="#FF0000"/>
<g clip-path="url(#clip0_366_1155)">
<path d="M19 18.0279L19 15.3057C19 14.7688 18.5647 14.3335 18.0278 14.3335L15.3056 14.3335C14.7686 14.3335 14.3333 14.7688 14.3333 15.3057L14.3333 18.0279C14.3333 18.5649 14.7686 19.0002 15.3056 19.0002L18.0278 19.0002C18.5647 19.0002 19 18.5649 19 18.0279Z" fill="white"/>
<path d="M8.69444 19L5.97222 19C5.43555 19 5 18.5644 5 18.0278L5 15.3056C5 14.7689 5.43555 14.3333 5.97222 14.3333L8.69444 14.3333C9.23111 14.3333 9.66667 13.8978 9.66667 13.3611L9.66667 10.6389C9.66667 10.1022 9.23111 9.66667 8.69444 9.66667L5.97222 9.66667C5.43555 9.66667 5 9.23111 5 8.69445L5 5.97222C5 5.43556 5.43555 5 5.97222 5L8.69444 5C9.23111 5 9.66667 5.43556 9.66667 5.97222L9.66667 8.69445C9.66667 9.23111 10.1022 9.66667 10.6389 9.66667L13.3611 9.66667C13.8978 9.66667 14.3333 9.23111 14.3333 8.69445L14.3333 5.97222C14.3333 5.43556 14.7689 5 15.3056 5L18.0278 5C18.5644 5 19 5.43556 19 5.97222L19 8.69445C19 9.23111 18.5644 9.66667 18.0278 9.66667L15.3056 9.66667C14.7689 9.66667 14.3333 10.1022 14.3333 10.6389L14.3333 13.3611C14.3333 13.8978 13.8978 14.3333 13.3611 14.3333L10.6389 14.3333C10.1022 14.3333 9.66667 14.7689 9.66667 15.3056L9.66667 18.0278C9.66667 18.5644 9.23111 19 8.69444 19Z" fill="white"/>
</g>
<defs>
<clipPath id="clip0_366_1155">
<rect width="14" height="14" fill="white" transform="translate(19 5) rotate(90)"/>
</clipPath>
</defs>
</svg>
